<svg class="icon" viewBox="0 0 1024 1024" xmlns="http://www.w3.org/2000/svg" width="200" height="200"><defs><style/></defs><path d="M850.88 442.99l-48.064-48.076 106.26-106.257 48.062 48.075L850.88 442.99zM521.806 901.576c-95.499 0-267.341-68.696-397.427-282.382C243.57 418.524 410.983 342.043 516.565 342.043c91.125 0 214.228 41.095 386.967 277.151-163.394 242.46-286.224 282.383-381.726 282.383zm-5.241-502.003c-87.378 0-215.044 50.819-334.67 224.85C310.16 800.616 444.756 844.06 516.566 844.06c71.806 0 211.782-44.244 329.452-224.865-110.252-157.224-239.008-219.62-329.452-219.62zm-5.217 360.818c-77.977 0-141.198-63.206-141.198-141.198 0-77.973 63.221-141.183 141.198-141.183 77.974 0 141.198 63.21 141.198 141.183 0 77.992-63.223 141.198-141.198 141.198zm0-224.864c-46.216 0-83.68 37.466-83.68 83.666 0 46.217 37.464 83.67 83.68 83.67 46.214 0 83.652-37.453 83.652-83.67.001-46.199-37.438-83.666-83.652-83.666zm-31.382-413.105h67.979v172.563h-67.979V122.423zM66.862 338.636l47.245-48.823 104.465 107.943-47.246 48.821L66.862 338.636zm0 0" fill="#13227a"/></svg>